<mxGraphModel dx="1050" dy="1653" grid="1" gridSize="10" guides="1" tooltips="1" connect="1" arrows="1" fold="1" page="1" pageScale="1" pageWidth="850" pageHeight="1100" math="0" shadow="0">
  <root>
    <mxCell id="0" />
    <mxCell id="1" parent="0" />
    <mxCell id="RPvP9oJDMimQl4wZ2Ckf-16" value="" style="edgeStyle=orthogonalEdgeStyle;rounded=0;orthogonalLoop=1;jettySize=auto;html=1;" parent="1" source="RPvP9oJDMimQl4wZ2Ckf-1" target="RPvP9oJDMimQl4wZ2Ckf-15" edge="1">
      <mxGeometry relative="1" as="geometry" />
    </mxCell>
    <mxCell id="RPvP9oJDMimQl4wZ2Ckf-1" value="R" style="triangle;whiteSpace=wrap;html=1;" parent="1" vertex="1">
      <mxGeometry x="80" y="100" width="60" height="80" as="geometry" />
    </mxCell>
    <mxCell id="RPvP9oJDMimQl4wZ2Ckf-5" value="" style="swimlane;startSize=0;" parent="1" vertex="1">
      <mxGeometry x="380" y="95" width="90" height="90" as="geometry" />
    </mxCell>
    <mxCell id="RPvP9oJDMimQl4wZ2Ckf-9" value="Comparator" style="text;html=1;align=center;verticalAlign=middle;resizable=0;points=[];autosize=1;strokeColor=none;fillColor=none;" parent="RPvP9oJDMimQl4wZ2Ckf-5" vertex="1">
      <mxGeometry y="30" width="90" height="30" as="geometry" />
    </mxCell>
    <mxCell id="RPvP9oJDMimQl4wZ2Ckf-12" value="" style="edgeStyle=orthogonalEdgeStyle;rounded=0;orthogonalLoop=1;jettySize=auto;html=1;entryX=0;entryY=0.5;entryDx=0;entryDy=0;" parent="1" source="RPvP9oJDMimQl4wZ2Ckf-9" target="CyOtv-yPDXmOrcRfvYqK-26" edge="1">
      <mxGeometry relative="1" as="geometry">
        <mxPoint x="530" y="140" as="targetPoint" />
      </mxGeometry>
    </mxCell>
    <mxCell id="RPvP9oJDMimQl4wZ2Ckf-17" value="" style="edgeStyle=orthogonalEdgeStyle;rounded=0;orthogonalLoop=1;jettySize=auto;html=1;" parent="1" source="RPvP9oJDMimQl4wZ2Ckf-15" target="RPvP9oJDMimQl4wZ2Ckf-9" edge="1">
      <mxGeometry relative="1" as="geometry" />
    </mxCell>
    <mxCell id="RPvP9oJDMimQl4wZ2Ckf-15" value="Red Buffer" style="whiteSpace=wrap;html=1;" parent="1" vertex="1">
      <mxGeometry x="190" y="110" width="120" height="60" as="geometry" />
    </mxCell>
    <mxCell id="RPvP9oJDMimQl4wZ2Ckf-20" value="&lt;h1&gt;Floyd-Steinberg Dithering&lt;/h1&gt;" style="text;html=1;strokeColor=none;fillColor=none;spacing=5;spacingTop=-20;whiteSpace=wrap;overflow=hidden;rounded=0;" parent="1" vertex="1">
      <mxGeometry y="-120" width="370" height="120" as="geometry" />
    </mxCell>
    <mxCell id="CyOtv-yPDXmOrcRfvYqK-5" value="" style="edgeStyle=orthogonalEdgeStyle;rounded=0;orthogonalLoop=1;jettySize=auto;html=1;" parent="1" source="CyOtv-yPDXmOrcRfvYqK-6" target="CyOtv-yPDXmOrcRfvYqK-12" edge="1">
      <mxGeometry relative="1" as="geometry" />
    </mxCell>
    <mxCell id="CyOtv-yPDXmOrcRfvYqK-6" value="G" style="triangle;whiteSpace=wrap;html=1;" parent="1" vertex="1">
      <mxGeometry x="80" y="205" width="60" height="80" as="geometry" />
    </mxCell>
    <mxCell id="CyOtv-yPDXmOrcRfvYqK-7" value="" style="swimlane;startSize=0;" parent="1" vertex="1">
      <mxGeometry x="380" y="200" width="90" height="90" as="geometry" />
    </mxCell>
    <mxCell id="CyOtv-yPDXmOrcRfvYqK-8" value="Comparator" style="text;html=1;align=center;verticalAlign=middle;resizable=0;points=[];autosize=1;strokeColor=none;fillColor=none;" parent="CyOtv-yPDXmOrcRfvYqK-7" vertex="1">
      <mxGeometry y="30" width="90" height="30" as="geometry" />
    </mxCell>
    <mxCell id="CyOtv-yPDXmOrcRfvYqK-10" value="" style="edgeStyle=orthogonalEdgeStyle;rounded=0;orthogonalLoop=1;jettySize=auto;html=1;entryX=0;entryY=0.5;entryDx=0;entryDy=0;" parent="1" source="CyOtv-yPDXmOrcRfvYqK-8" target="CyOtv-yPDXmOrcRfvYqK-25" edge="1">
      <mxGeometry relative="1" as="geometry">
        <mxPoint x="510" y="250" as="targetPoint" />
      </mxGeometry>
    </mxCell>
    <mxCell id="CyOtv-yPDXmOrcRfvYqK-11" value="" style="edgeStyle=orthogonalEdgeStyle;rounded=0;orthogonalLoop=1;jettySize=auto;html=1;" parent="1" source="CyOtv-yPDXmOrcRfvYqK-12" target="CyOtv-yPDXmOrcRfvYqK-8" edge="1">
      <mxGeometry relative="1" as="geometry" />
    </mxCell>
    <mxCell id="CyOtv-yPDXmOrcRfvYqK-12" value="Green Buffer" style="whiteSpace=wrap;html=1;" parent="1" vertex="1">
      <mxGeometry x="190" y="215" width="120" height="60" as="geometry" />
    </mxCell>
    <mxCell id="CyOtv-yPDXmOrcRfvYqK-13" value="" style="edgeStyle=orthogonalEdgeStyle;rounded=0;orthogonalLoop=1;jettySize=auto;html=1;" parent="1" source="CyOtv-yPDXmOrcRfvYqK-14" target="CyOtv-yPDXmOrcRfvYqK-20" edge="1">
      <mxGeometry relative="1" as="geometry" />
    </mxCell>
    <mxCell id="CyOtv-yPDXmOrcRfvYqK-14" value="B" style="triangle;whiteSpace=wrap;html=1;" parent="1" vertex="1">
      <mxGeometry x="80" y="315" width="60" height="80" as="geometry" />
    </mxCell>
    <mxCell id="CyOtv-yPDXmOrcRfvYqK-15" value="" style="swimlane;startSize=0;" parent="1" vertex="1">
      <mxGeometry x="380" y="310" width="90" height="90" as="geometry" />
    </mxCell>
    <mxCell id="CyOtv-yPDXmOrcRfvYqK-16" value="Comparator" style="text;html=1;align=center;verticalAlign=middle;resizable=0;points=[];autosize=1;strokeColor=none;fillColor=none;" parent="CyOtv-yPDXmOrcRfvYqK-15" vertex="1">
      <mxGeometry y="30" width="90" height="30" as="geometry" />
    </mxCell>
    <mxCell id="CyOtv-yPDXmOrcRfvYqK-18" value="" style="edgeStyle=orthogonalEdgeStyle;rounded=0;orthogonalLoop=1;jettySize=auto;html=1;entryX=0;entryY=0.5;entryDx=0;entryDy=0;" parent="1" source="CyOtv-yPDXmOrcRfvYqK-16" target="CyOtv-yPDXmOrcRfvYqK-24" edge="1">
      <mxGeometry relative="1" as="geometry">
        <mxPoint x="545" y="355" as="targetPoint" />
      </mxGeometry>
    </mxCell>
    <mxCell id="CyOtv-yPDXmOrcRfvYqK-19" value="" style="edgeStyle=orthogonalEdgeStyle;rounded=0;orthogonalLoop=1;jettySize=auto;html=1;" parent="1" source="CyOtv-yPDXmOrcRfvYqK-20" target="CyOtv-yPDXmOrcRfvYqK-16" edge="1">
      <mxGeometry relative="1" as="geometry" />
    </mxCell>
    <mxCell id="CyOtv-yPDXmOrcRfvYqK-20" value="Blue Buffer" style="whiteSpace=wrap;html=1;" parent="1" vertex="1">
      <mxGeometry x="190" y="325" width="120" height="60" as="geometry" />
    </mxCell>
    <mxCell id="CyOtv-yPDXmOrcRfvYqK-23" style="edgeStyle=orthogonalEdgeStyle;rounded=0;orthogonalLoop=1;jettySize=auto;html=1;exitX=0.5;exitY=1;exitDx=0;exitDy=0;entryX=0;entryY=0.5;entryDx=0;entryDy=0;" parent="1" source="CyOtv-yPDXmOrcRfvYqK-21" target="CyOtv-yPDXmOrcRfvYqK-22" edge="1">
      <mxGeometry relative="1" as="geometry" />
    </mxCell>
    <mxCell id="CyOtv-yPDXmOrcRfvYqK-21" value="Final Image Data" style="shape=process;whiteSpace=wrap;html=1;backgroundOutline=1;rotation=-90;" parent="1" vertex="1">
      <mxGeometry x="600" y="190" width="350" height="110" as="geometry" />
    </mxCell>
    <mxCell id="CyOtv-yPDXmOrcRfvYqK-22" value="To MCU" style="shape=step;perimeter=stepPerimeter;whiteSpace=wrap;html=1;fixedSize=1;" parent="1" vertex="1">
      <mxGeometry x="890" y="205" width="120" height="80" as="geometry" />
    </mxCell>
    <mxCell id="CyOtv-yPDXmOrcRfvYqK-32" style="edgeStyle=orthogonalEdgeStyle;rounded=0;orthogonalLoop=1;jettySize=auto;html=1;exitX=1;exitY=0.5;exitDx=0;exitDy=0;entryX=0.25;entryY=0;entryDx=0;entryDy=0;" parent="1" source="CyOtv-yPDXmOrcRfvYqK-24" target="CyOtv-yPDXmOrcRfvYqK-21" edge="1">
      <mxGeometry relative="1" as="geometry" />
    </mxCell>
    <mxCell id="CyOtv-yPDXmOrcRfvYqK-33" style="edgeStyle=orthogonalEdgeStyle;rounded=0;orthogonalLoop=1;jettySize=auto;html=1;exitX=1;exitY=0.75;exitDx=0;exitDy=0;entryX=0.5;entryY=1;entryDx=0;entryDy=0;" parent="1" source="CyOtv-yPDXmOrcRfvYqK-24" target="CyOtv-yPDXmOrcRfvYqK-15" edge="1">
      <mxGeometry relative="1" as="geometry">
        <mxPoint x="670" y="480" as="targetPoint" />
        <Array as="points">
          <mxPoint x="660" y="372" />
          <mxPoint x="660" y="510" />
          <mxPoint x="425" y="510" />
        </Array>
      </mxGeometry>
    </mxCell>
    <mxCell id="CyOtv-yPDXmOrcRfvYqK-24" value="ALU" style="shape=step;perimeter=stepPerimeter;whiteSpace=wrap;html=1;fixedSize=1;" parent="1" vertex="1">
      <mxGeometry x="530" y="315" width="120" height="80" as="geometry" />
    </mxCell>
    <mxCell id="CyOtv-yPDXmOrcRfvYqK-31" style="edgeStyle=orthogonalEdgeStyle;rounded=0;orthogonalLoop=1;jettySize=auto;html=1;exitX=1;exitY=0.5;exitDx=0;exitDy=0;" parent="1" source="CyOtv-yPDXmOrcRfvYqK-25" target="CyOtv-yPDXmOrcRfvYqK-21" edge="1">
      <mxGeometry relative="1" as="geometry" />
    </mxCell>
    <mxCell id="CyOtv-yPDXmOrcRfvYqK-35" style="edgeStyle=orthogonalEdgeStyle;rounded=0;orthogonalLoop=1;jettySize=auto;html=1;exitX=1;exitY=0.75;exitDx=0;exitDy=0;entryX=0.5;entryY=1;entryDx=0;entryDy=0;" parent="1" source="CyOtv-yPDXmOrcRfvYqK-25" target="CyOtv-yPDXmOrcRfvYqK-7" edge="1">
      <mxGeometry relative="1" as="geometry">
        <Array as="points">
          <mxPoint x="690" y="262" />
          <mxPoint x="690" y="300" />
          <mxPoint x="425" y="300" />
        </Array>
      </mxGeometry>
    </mxCell>
    <mxCell id="CyOtv-yPDXmOrcRfvYqK-25" value="ALU" style="shape=step;perimeter=stepPerimeter;whiteSpace=wrap;html=1;fixedSize=1;" parent="1" vertex="1">
      <mxGeometry x="530" y="205" width="120" height="80" as="geometry" />
    </mxCell>
    <mxCell id="CyOtv-yPDXmOrcRfvYqK-29" style="edgeStyle=orthogonalEdgeStyle;rounded=0;orthogonalLoop=1;jettySize=auto;html=1;exitX=1;exitY=0.5;exitDx=0;exitDy=0;entryX=0.75;entryY=0;entryDx=0;entryDy=0;" parent="1" source="CyOtv-yPDXmOrcRfvYqK-26" target="CyOtv-yPDXmOrcRfvYqK-21" edge="1">
      <mxGeometry relative="1" as="geometry" />
    </mxCell>
    <mxCell id="CyOtv-yPDXmOrcRfvYqK-34" style="edgeStyle=orthogonalEdgeStyle;rounded=0;orthogonalLoop=1;jettySize=auto;html=1;exitX=1;exitY=0.25;exitDx=0;exitDy=0;entryX=0.5;entryY=0;entryDx=0;entryDy=0;" parent="1" source="CyOtv-yPDXmOrcRfvYqK-26" target="RPvP9oJDMimQl4wZ2Ckf-5" edge="1">
      <mxGeometry relative="1" as="geometry">
        <Array as="points">
          <mxPoint x="660" y="123" />
          <mxPoint x="660" y="20" />
          <mxPoint x="425" y="20" />
        </Array>
      </mxGeometry>
    </mxCell>
    <mxCell id="CyOtv-yPDXmOrcRfvYqK-26" value="ALU" style="shape=step;perimeter=stepPerimeter;whiteSpace=wrap;html=1;fixedSize=1;" parent="1" vertex="1">
      <mxGeometry x="530" y="100" width="120" height="80" as="geometry" />
    </mxCell>
    <mxCell id="CyOtv-yPDXmOrcRfvYqK-36" value="" style="endArrow=none;dashed=1;html=1;dashPattern=1 3;strokeWidth=2;rounded=0;" parent="1" edge="1">
      <mxGeometry width="50" height="50" relative="1" as="geometry">
        <mxPoint x="249.5" y="490" as="sourcePoint" />
        <mxPoint x="249.5" y="20" as="targetPoint" />
      </mxGeometry>
    </mxCell>
    <mxCell id="CyOtv-yPDXmOrcRfvYqK-37" value="" style="endArrow=none;dashed=1;html=1;dashPattern=1 3;strokeWidth=2;rounded=0;" parent="1" edge="1">
      <mxGeometry width="50" height="50" relative="1" as="geometry">
        <mxPoint x="774.5" y="511.71" as="sourcePoint" />
        <mxPoint x="774.5" y="19.998717830882352" as="targetPoint" />
      </mxGeometry>
    </mxCell>
  </root>
</mxGraphModel>
